<svg viewBox="0 0 249.66292068494036 66" preserveAspectRatio="xMidYMid meet" xmlns="http://www.w3.org/2000/svg"><defs id="SvgjsDefs4029"></defs><g id="SvgjsG4030" featurekey="nameLeftFeature-0" transform="matrix(1.9047110050469722,0,0,1.9047110050469722,-0.8215110795324962,17.89310292908445)" fill="#111"><path d="M3 6.441000000000001 c0.30508 0 0.45763 0.18644 0.45763 0.45763 l0 14.695 c-0.033898 1.661 -0.9661 2.9492 -2.2542 3.6102 c-0.13559 0.084746 -0.23729 0.067797 -0.32203 -0.050847 l-0.42373 -0.81356 c-0.050847 -0.13559 -0.033898 -0.22034 0.10169 -0.28814 c0.91525 -0.49153 1.5593 -1.339 1.5593 -2.5763 l0 -14.169 c0 -0.25424 -0.033898 -0.42373 -0.067797 -0.61017 c-0.016949 -0.15254 0.033898 -0.25424 0.18644 -0.25424 l0.76271 0 z M14.779459322033897 7.728999999999999 l-7.3556 0.00049656 l0 4.9659 l4.5424 0 c0.15254 0 0.23729 0.067797 0.23729 0.23729 l0 0.81339 c0 0.15254 -0.084746 0.22034 -0.23729 0.22034 l-4.5424 0 l0 4.7458 l7.3559 0 c0.15254 0 0.23712 0.084746 0.23712 0.23712 l0 0.81356 c0 0.16949 -0.067797 0.23712 -0.23729 0.23712 l-8.4746 0 c-0.15254 0 -0.22034 -0.08458 -0.22034 -0.22017 l0 -13.119 c0 -0.15254 0.084746 -0.22034 0.22034 -0.22034 l8.4746 0 c0.15254 0 0.23712 0.084746 0.23712 0.22034 l0 0.84746 c0 0.13559 -0.067797 0.22034 -0.23729 0.22034 z M30.08494915254237 19.77983 c0.067797 0.13559 0.034229 0.22017 -0.11831 0.22017 l-1.0339 0 c-0.11864 0 -0.18644 -0.050847 -0.23729 -0.15254 l-1.1864 -2.5254 l-8.1864 0 l-1.1864 2.5254 c-0.050847 0.10169 -0.11848 0.15254 -0.22034 0.15254 l-1.0678 0 c-0.11864 0 -0.18644 -0.08458 -0.11864 -0.22017 l6.3558 -13.271 c0.067797 -0.11864 0.11864 -0.15254 0.20322 -0.15254 l0.23745 0 c0.084746 0 0.15254 0.033898 0.20339 0.15254 z M19.898449152542373 16.1019 l7.0339 0 l-3.5254 -7.4576 z M43.57630508474577 6.441000000000001 c0.11864 0 0.20356 0.067631 0.20356 0.18627 l0 13.186 c0 0.11881 -0.084746 0.18644 -0.20339 0.18644 l-0.35593 0 c-0.25441 0 -0.49169 -0.16933 -0.81373 -0.52525 l-8.9153 -10.525 l0 10.831 c0 0.13559 -0.084746 0.22017 -0.22034 0.22017 l-0.88136 0 c-0.15254 0 -0.22034 -0.08458 -0.22034 -0.22017 l0 -13.136 c0 -0.11864 0.067797 -0.20339 0.20339 -0.20339 l0.55932 0 c0.11864 0 0.20339 0.050847 0.32203 0.18644 l9.2034 10.932 l0 -10.932 c0 -0.11864 0.067797 -0.18644 0.18644 -0.18644 l0.9322 0 z"></path></g><g id="SvgjsG4031" featurekey="nameRightFeature-0" transform="matrix(1.9024722922008395,0,0,1.9024722922008395,91.19356670010112,17.940913531682803)" fill="#111"><path d="M13.474 6.441000000000001 c0.18661 0 0.40712 0.15238 0.28847 0.38966 l-6.2203 13 c-0.067797 0.13559 -0.20339 0.25407 -0.37288 0.25407 l-0.13559 0 c-0.15254 0 -0.28814 -0.11848 -0.35593 -0.25407 l-6.2203 -13.017 c-0.11881 -0.22017 0.10153 -0.37271 0.28797 -0.37271 l2.2203 0 c0.16949 0 0.25424 0.15254 0.33898 0.33898 l3.7966 8.3559 l3.8136 -8.3559 c0.084746 -0.18644 0.15238 -0.33898 0.33898 -0.33898 l2.2202 0 z M24.13558644067797 8.78 l-6.1697 -0.00033103 l0 3.4068 l3.322 0 c0.18644 0 0.33898 0.15254 0.33898 0.33915 l0 1.6778 c0 0.20339 -0.13559 0.3222 -0.33898 0.3222 l-3.322 0 l0 3.1356 l6.1695 0 c0.18644 0 0.33881 0.15238 0.33881 0.33881 l0 1.6613 c0 0.18644 -0.15238 0.33881 -0.33881 0.33881 l-8.2542 0 c-0.18644 0 -0.33898 -0.15238 -0.33898 -0.33881 l0 -12.898 c0 -0.16949 0.13559 -0.32203 0.3222 -0.32203 l8.2712 0 c0.18644 0 0.33881 0.15254 0.33881 0.32203 l0 1.6949 c0 0.18644 -0.15238 0.32203 -0.33881 0.32203 z M37.05027118644068 19.61017 c0.13559 0.20339 0.034064 0.38983 -0.23712 0.38983 l-1.5763 0 c-0.47458 0 -0.88136 -0.44068 -1.0339 -0.69492 l-2.339 -3.5763 l-2.8475 0 l0 3.9322 c0 0.20339 -0.13559 0.33881 -0.32203 0.33881 l-1.7966 0 c-0.16949 0 -0.30508 -0.13543 -0.30508 -0.33881 l0 -12.898 c0 -0.16949 0.13559 -0.32203 0.32203 -0.32203 l5.4068 0 c2.7797 0 4.4915 2.5763 4.4915 4.6441 c0 1.6442 -0.98305 3.4576 -2.661 4.2373 z M29.017071186440678 8.78 l0.00033103 4.6102 l2.9659 0 c1.6102 0 2.3898 -1.1695 2.3898 -2.3559 c0 -1.1356 -0.79661 -2.2542 -2.3902 -2.2542 l-2.9659 0 z M38.66102016949153 17.6442 l0.96576 -1.1188 c0.20339 -0.23746 0.45763 -0.23746 0.64407 -0.10186 c0.55932 0.47458 1.5593 1.3729 2.8136 1.3729 c1.2203 0 2.2712 -0.4578 2.2712 -1.5086 c0 -1.1017 -1.1356 -1.4237 -2.3051 -1.8983 c-2.4237 -1 -4.1864 -2.0339 -4.1864 -4.2373 c0 -1.7288 1.2712 -3.8136 4.339 -3.8136 c2.0847 0 3.5934 1.1866 4.0341 1.6273 c0.18644 0.18644 0.28814 0.42373 0.11864 0.62712 l-0.84746 1.1186 c-0.16966 0.22034 -0.40678 0.32203 -0.67797 0.13559 c-0.54237 -0.42373 -1.4237 -1.2034 -2.6102 -1.2034 c-1.2034 0 -1.9492 0.69492 -1.9492 1.5085 c0 0.89831 0.77966 1.339 2.0508 1.8475 c2.2203 0.93254 4.4407 1.9325 4.4407 4.3224 c0 1.9831 -1.9659 3.7964 -4.6439 3.7964 c-2.4237 0 -3.9322 -1.5422 -4.3559 -1.949 c-0.15254 -0.13559 -0.30508 -0.32203 -0.10169 -0.52542 z M59.37238983050848 6.441000000000001 c0.16949 0 0.32203 0.13592 0.32203 0.32237 l0 1.6949 c0 0.16933 -0.15254 0.32186 -0.32203 0.32186 l-3.8305 0 l0 10.881 c0 0.20339 -0.13559 0.33881 -0.32203 0.33881 l-1.2542 0 c-0.54237 0 -0.84746 -0.37288 -0.84746 -0.86441 l0 -10.356 l-3.8136 0 c-0.16949 0 -0.33898 -0.13559 -0.33898 -0.32203 l0 -1.678 c0 -0.18644 0.15254 -0.33898 0.33898 -0.33898 l10.068 0 z M70.32202711864407 8.78 l-6.1697 -0.00033103 l0 3.4068 l3.322 0 c0.18644 0 0.33898 0.15254 0.33898 0.33915 l0 1.6778 c0 0.20339 -0.13559 0.3222 -0.33898 0.3222 l-3.322 0 l0 3.1356 l6.1695 0 c0.18644 0 0.33881 0.15238 0.33881 0.33881 l0 1.6613 c0 0.18644 -0.15238 0.33881 -0.33881 0.33881 l-8.2542 0 c-0.18644 0 -0.33898 -0.15238 -0.33898 -0.33881 l0 -12.898 c0 -0.16949 0.13559 -0.32203 0.3222 -0.32203 l8.2712 0 c0.18644 0 0.33881 0.15254 0.33881 0.32203 l0 1.6949 c0 0.18644 -0.15238 0.32203 -0.33881 0.32203 z M83.23671186440679 19.61017 c0.13559 0.20339 0.034064 0.38983 -0.23712 0.38983 l-1.5763 0 c-0.47458 0 -0.88136 -0.44068 -1.0339 -0.69492 l-2.339 -3.5763 l-2.8475 0 l0 3.9322 c0 0.20339 -0.13559 0.33881 -0.32203 0.33881 l-1.7966 0 c-0.16949 0 -0.30508 -0.13543 -0.30508 -0.33881 l0 -12.898 c0 -0.16949 0.13559 -0.32203 0.32203 -0.32203 l5.4068 0 c2.7797 0 4.4915 2.5763 4.4915 4.6441 c0 1.6442 -0.98305 3.4576 -2.661 4.2373 z M75.20351186440678 8.78 l0.00033103 4.6102 l2.9659 0 c1.6102 0 2.3898 -1.1695 2.3898 -2.3559 c0 -1.1356 -0.79661 -2.2542 -2.3902 -2.2542 l-2.9659 0 z"></path></g></svg>