<svg viewBox="0 0 64 64" preserveAspectRatio="xMidYMid meet" xmlns="http://www.w3.org/2000/svg"><defs id="SvgjsDefs2531"></defs><g id="SvgjsG2532" featurekey="nameLeftFeature-0" transform="matrix(2.003949212758688,0,0,2.003949212758688,-0.18529086067165496,16.991603729052322)" fill="#111"><path d="M1.7966 7.949 c-0.42373 0 -0.74576 -0.32203 -0.74576 -0.72881 s0.32203 -0.72881 0.74576 -0.72881 c0.38983 0 0.72881 0.32203 0.72881 0.72881 s-0.33898 0.72881 -0.72881 0.72881 z M2.2373 11.6102 l-0.86424 0 c-0.13559 0 -0.20339 0.084746 -0.20339 0.22034 l0 9.8644 c0 0.88119 -0.20339 1.2202 -0.94915 1.5592 c-0.13559 0.050847 -0.15254 0.13559 -0.10169 0.25424 l0.42356 0.84746 c0.050847 0.11864 0.13559 0.11864 0.27119 0.067797 c1.3051 -0.55932 1.6441 -1.5085 1.6441 -2.7286 l-0.016949 -9.8644 c0 -0.13559 -0.067797 -0.22034 -0.20339 -0.22034 z"></path></g><g id="SvgjsG2533" featurekey="nameRightFeature-0" transform="matrix(2.003949212758688,0,0,2.003949212758688,13.124002265308189,16.991603729052322)" fill="#111"><path d="M8.661 11.6102 l-1.8646 0 c-0.18644 0 -0.25424 0.11881 -0.32203 0.3222 l-1.7625 4.1524 l-1.7797 -4.1524 c-0.067797 -0.20339 -0.13559 -0.3222 -0.32203 -0.3222 l-1.9322 0 c-0.18644 0 -0.30508 0.11881 -0.20356 0.3222 l3.7966 7.9153 c0.067797 0.11864 0.23746 0.23712 0.3561 0.23712 l0.16949 0 c0.11864 0 0.28814 -0.11848 0.35593 -0.23712 l3.7797 -7.9153 c0.10169 -0.18661 -0.084746 -0.3222 -0.27119 -0.3222 z"></path></g></svg>